<?xml version="1.0" encoding="utf-8"?>
<!-- Generator: Adobe Illustrator 26.2.1, SVG Export Plug-In . SVG Version: 6.00 Build 0)  -->
<svg version="1.1" id="Capa_1" xmlns="http://www.w3.org/2000/svg" xmlns:xlink="http://www.w3.org/1999/xlink" x="0px" y="0px"
	 viewBox="0 0 532 388" style="enable-background:new 0 0 532 388;" xml:space="preserve">
<style type="text/css">
	.st0{fill:#FFFFFF;}
</style>
<g>
	<path class="st0" d="M149.34,224.55c-3.95,2.03-11.86,4.05-21.98,4.05c-23.47,0-41.13-15.2-41.13-43.19
		c0-26.73,17.66-44.84,43.47-44.84c10.37,0,16.92,2.28,19.76,3.8l-2.59,8.99c-4.08-2.03-9.88-3.55-16.8-3.55
		c-19.51,0-32.48,12.79-32.48,35.21c0,20.9,11.73,34.33,31.99,34.33c6.55,0,13.21-1.39,17.54-3.55L149.34,224.55z"/>
	<path class="st0" d="M194.9,227l-0.89-8h-0.38c-3.41,4.98-9.99,9.44-18.71,9.44c-12.39,0-18.71-9.05-18.71-18.23
		c0-15.34,13.15-23.74,36.79-23.61v-1.31c0-5.25-1.39-14.69-13.91-14.69c-5.69,0-11.63,1.84-15.93,4.72l-2.53-7.61
		c5.06-3.41,12.39-5.64,20.1-5.64c18.71,0,23.26,13.25,23.26,25.97v23.74c0,5.51,0.25,10.89,1.01,15.21H194.9z M193,196.05
		c-11.86-0.25-25.32,1.9-25.32,13.81c0,7.22,4.69,10.64,10.25,10.64c7.78,0,12.72-5.07,14.45-10.26c0.37-1.14,0.62-2.41,0.62-3.55
		V196.05z"/>
	<path class="st0" d="M208.22,247.1c-0.27-0.96-0.39-1.98-0.35-3.06c3.49-0.26,6.67-1.02,9.16-2.44c1.08-0.62,2.04-1.36,2.84-2.24
		c3-3.55,4.13-8.36,4.13-23.05V165h11v55.61c0.1,6.94-0.92,16.83-7.25,25.21c-6.46,8.54-15.58,11.74-14.75,16.19
		c0.57,3.07,5.53,4.88,11,6c-0.7-1.6-9.97-21.97-25.91-22.36c-4.81-0.12-12.01,1.57-13.09,5.36c-2.47,8.67,34.7,33.18,74,41
		c24.74,4.92,40.91,1.36,100.01-11.61c109.82-24.11,112.85-24.74,120.12-30.85C520.98,214.37,537.85,136.83,505,82
		c-27.52-45.93-79.7-57.5-91-60c-56.46-12.51-71.38,17.67-155,22c-71.14,3.69-82.68-19.42-134-5c-16.42,4.62-62,18.16-91.47,62.65
		C8.96,138.73,0.32,190.14,18,232c9.49,22.47,26.99,38.65,62,71c24.72,22.84,37.08,34.27,57,45c42.45,22.87,105.48,35.55,132,9
		c5.8-5.81,11.79-15.44,9-20c-3.67-6-19.68,1.32-43,0c-14.54-0.82-24.56-4.58-39-10c-36.61-13.74-63.02-36.55-75-48
		c-12.75-12.19-76.29-72.93-66.31-114.06c21.74-89.59,400.16-118.16,438.15-23.32C505.73,173.78,477.7,215.74,451,247
		C345.13,261.74,215.88,274.23,208.22,247.1z M234.56,148.8c0.12,3.67-2.47,6.84-6.79,6.84c-4.08,0-6.67-3.17-6.67-6.84
		c0-3.93,2.84-6.97,6.92-6.97C231.97,141.84,234.56,144.88,234.56,148.8z"/>
	<path class="st0" d="M301,210.36c0,6.3,0.13,11.85,0.5,16.64h-9.51l-0.62-10h-0.22c-2.82,4.91-9.09,11.33-19.65,11.33
		c-9.33,0-20.5-5.29-20.5-26.7V166h10v33.95c0,11.65,3.5,19.51,13.5,19.51c7.37,0,12.5-5.19,14.5-10.13c0.62-1.65,1-3.67,1-5.7V166
		h11V210.36z"/>
	<path class="st0" d="M317.68,215.94c3.21,2.15,8.89,4.43,14.33,4.43c7.9,0,11.61-4.05,11.61-9.12c0-5.32-3.09-8.23-11.12-11.27
		c-10.75-3.93-15.81-10.01-15.81-17.35c0-9.88,7.78-17.99,20.62-17.99c6.05,0,11.36,1.77,14.7,3.8l-2.72,8.11
		c-2.35-1.52-6.67-3.55-12.23-3.55c-6.42,0-10,3.8-10,8.36c0,5.07,3.58,7.35,11.36,10.39c10.38,4.05,15.69,9.37,15.69,18.49
		c0,10.77-8.15,18.37-22.35,18.37c-6.55,0-12.6-1.65-16.8-4.18L317.68,215.94z"/>
	<path class="st0" d="M422.16,196.18c0,22.67-15.32,32.55-29.76,32.55c-16.18,0-28.65-12.16-28.65-31.54
		c0-20.52,13.09-32.55,29.64-32.55C410.55,164.64,422.16,177.43,422.16,196.18z M374.74,196.81c0,13.43,7.53,23.56,18.15,23.56
		c10.38,0,18.16-10.01,18.16-23.81c0-10.39-5.06-23.56-17.91-23.56C380.29,173,374.74,185.16,374.74,196.81z"/>
	<path class="st0" d="M436,137h11v90h-11V137z"/>
</g>
</svg>
